<svg xmlns="http://www.w3.org/2000/svg" version="1.1" width="350" height="350" viewBox="0 0 350 350" xml:space="preserve"><style>.s0{fill:white;}</style><desc>Created with Fabric.js 1.7.22</desc><g transform="translate(-1.9444444444444287 -1.9444444444444287) scale(3.89 3.89)" fill="none"><path d="M45 71c-16 0-29-13-29-29 0-1.7 1.4-3.1 3.1-3.1 1.7 0 3.1 1.4 3.1 3.1C22.2 54.5 32.4 64.8 45 64.8c12.6 0 22.8-10.2 22.8-22.8 0-1.7 1.4-3.1 3.1-3.1s3.1 1.4 3.1 3.1C74 57.9 61 71 45 71zM45 60.7L45 60.7c-10.3 0-18.7-8.4-18.7-18.7V18.7C26.3 8.4 34.7 0 45 0h0c10.3 0 18.7 8.4 18.7 18.7v23.3C63.7 52.3 55.3 60.7 45 60.7zM45 89.2c-1.7 0-3.1-1.4-3.1-3.1V68.7c0-1.7 1.4-3.1 3.1-3.1 1.7 0 3.1 1.4 3.1 3.1v17.5C48.1 87.8 46.7 89.2 45 89.2z" transform=" matrix(1 0 0 1 0 0) " stroke-linecap="round" fill="white"/></g></svg>